<svg xmlns="http://www.w3.org/2000/svg" viewBox="0 0 750 500"><g id="freepik--Character--inject-23"><path d="M338.71,165l-6.8,9.7-17,6.89s-22.06,290.35-21.84,289.67,134.24,0,134.24,0,.18-286.6.63-285.92-33.06-12-33.06-12l-8.4-10.12Z" style="fill:#ebebeb"></path><path d="M367,465.05s0-.69,0-2,0-3.33,0-5.74c0-5.1,0-12.28,0-21.1,0-17.92.05-42.48.07-69.62s0-51.71,0-69.63c0-8.82,0-16,0-21.1v-5.73c0-1.32,0-2,0-2s0,.69.07,2,.05,3.33.09,5.73c.08,5,.14,12.19.2,21.1.12,17.82.17,42.44.14,69.64s-.12,51.81-.22,69.62c-.06,8.83-.11,16-.15,21.1,0,2.41,0,4.33-.07,5.74S367,465.05,367,465.05Z" style="fill:#263238"></path><polygon points="340.45 164.72 336.23 198 367.13 269.14 390.02 195.81 386.46 163.21 340.45 164.72 340.45 164.72" style="fill:#ffbe9d"></polygon><path d="M427.93,185.33s10.83,3.75,13.86,9.62c4.74,9.18,25.63,87,28.76,98.07,6.22,21.9-10.57,40.42-23,40-15.93-.53-110.63-18.11-110.63-18.11l7.25-34.49,78.89,11.63Z" style="fill:#ebebeb"></path><path d="M417.42,300.12a.62.62,0,0,1,0-.24c0-.19.05-.42.09-.7.1-.65.24-1.54.41-2.67.35-2.32.91-5.66,1.62-9.79,1.39-8.27,3.54-19.66,5.3-32.32.86-6.34,1.46-12.4,1.84-17.92s.49-10.51.55-14.7,0-7.58-.14-9.92c0-1.14-.05-2-.07-2.7v-.7a.87.87,0,0,1,0-.24.89.89,0,0,1,0,.23c0,.19,0,.42.06.7,0,.66.09,1.56.16,2.7.16,2.34.26,5.73.31,9.93s-.05,9.19-.44,14.73-.95,11.61-1.8,18c-1.76,12.68-4,24.06-5.46,32.31-.75,4.09-1.35,7.41-1.78,9.77-.22,1.12-.38,2-.51,2.65l-.14.69A1.64,1.64,0,0,1,417.42,300.12Z" style="fill:#263238"></path><path d="M347,281.15l-13.76-.91-22-5s-4.59,2.57-4.77,4.41c0,0-3.86,3.3-3.49,5.68a11.51,11.51,0,0,0,1.84,4.41,5.82,5.82,0,0,0,.18,4.4c1.1,2,7.89,6.79,7.89,6.79s16.88,2.39,20.92,1.47a35.63,35.63,0,0,0,6.42-2Z" style="fill:#ffbe9d"></path><path d="M336.23,198h0A36,36,0,0,0,389,197l1.07-1.2-22.89,73.33Z" style="fill:#FF725E"></path><path d="M316.16,181.39s-27,4.57-33.6,19.74-14.89,61.9-16.83,88.34,2.28,48.21,14.73,55.59,125-28,125-28l-13.81-30.34-85.17,5.84Z" style="fill:#ebebeb"></path><path d="M301.41,344.61s.18-.07.53-.17l1.55-.44,6-1.63,22.17-5.95,73.76-19.61-.17.36L403,312.23l-11.55-25.39.25.14c-24.46,1.84-45.71,3.31-60.85,4.27-7.57.48-13.61.82-17.76,1l-4.76.23-1.23.05h-.42a3.39,3.39,0,0,1,.42-.05l1.23-.09,4.75-.31,17.75-1.19c15.13-1.05,36.37-2.59,60.83-4.45h.17l.08.16c3.65,8,7.55,16.57,11.56,25.39.77,1.69,1.54,3.37,2.25,4.94l.13.28-.3.08-73.8,19.45-22.21,5.79-6,1.54-1.57.39C301.6,344.58,301.41,344.61,301.41,344.61Z" style="fill:#263238"></path><path d="M291.32,315.2c-.38,1.85-.4,4.2,1.23,5.16,1.31.78,3.07.14,4.15-.94,2.33-2.33,2.33-6,2.68-9.29a38.24,38.24,0,0,1,6.42-17.05A36.24,36.24,0,0,0,291.32,315.2Z" style="fill:#e0e0e0"></path><path d="M306.33,292.31c-.18.25-.35.51-.53.77.25-.17.49-.35.74-.51Z" style="fill:#e0e0e0"></path><path d="M306.68,292.57c.06.07-1.22,1-3.12,2.7a46.81,46.81,0,0,0-6.65,7.37,44.91,44.91,0,0,0-4.82,8.67c-1,2.35-1.43,3.87-1.52,3.85a4.69,4.69,0,0,1,.24-1.09,27.07,27.07,0,0,1,.94-2.89,39.14,39.14,0,0,1,4.74-8.84,40.28,40.28,0,0,1,6.82-7.35c1-.82,1.82-1.44,2.42-1.84A4.57,4.57,0,0,1,306.68,292.57Z" style="fill:#263238"></path><path d="M328.2,155.55s-.27,4.6-2.1,7.59c-3,4.9-9.83,6.48-12.59,11.51-1.6,2.91-1.51,6.43-2.44,9.61-1.85,6.36-7.56,10.94-9.81,17.16-2.72,7.48,0,15.73-.18,23.69-.22,8.63-3.88,16.74-6,25.1s-2.48,18.09,3,24.73l2.47-5.28,4.76,5.62a10.06,10.06,0,0,1,2.31-6c2.62,3,6.37,6.22,10,4.71s4-6.3,3.94-10.18c-.59-25.71.83-52.25,11.68-75.57,2.34-5.05,3.6-6.11,5.54-11.32l-.1-15.86S331.12,159.42,328.2,155.55Z" style="fill:#263238"></path><path d="M391.68,286.73c0,.15-10-1-22.38-2.53S347,281.3,347,281.15s10,1,22.38,2.54S391.69,286.59,391.68,286.73Z" style="fill:#263238"></path><path d="M449.43,333.12l-.69.06-.84,0-1.15-.06c-.86,0-1.91-.13-3.13-.26s-2.61-.27-4.13-.46c-6.12-.75-14.54-2-23.82-3.43s-17.68-2.87-23.75-3.92l-7.18-1.29-1.94-.37a4,4,0,0,1-.68-.17,3,3,0,0,1,.69.06l2,.28,7.2,1.13,23.77,3.77c9.28,1.45,17.69,2.74,23.78,3.57,1.53.22,2.91.39,4.12.54s2.26.26,3.12.34l1.13.12h.83A2.93,2.93,0,0,1,449.43,333.12Z" style="fill:#263238"></path><path d="M308.58,272.08c.14,0-.24,4.65-.85,10.36s-1.22,10.33-1.36,10.31.23-4.65.84-10.36A100.08,100.08,0,0,1,308.58,272.08Z" style="fill:#263238"></path><path d="M327.75,202.85a4,4,0,0,1,0,.41c0,.29,0,.69,0,1.21,0,1.09,0,2.67,0,4.71,0,4.12,0,10.1.08,17.62l-.13-.16,11.06,2.7.25.06-.12.22-5.24,9.54,0-.27L367.3,269l-.37,0,8.74-10.87c7.58-9.43,14.87-18.48,21.64-26.89l0,.33-6.54-5.88-.25-.23.31-.16,14-7-.12.24c-3-13.63-5.5-24.92-7.24-32.83-.85-3.94-1.52-7-2-9.15-.21-1-.38-1.85-.5-2.41s-.15-.83-.15-.83.08.27.21.81.33,1.36.57,2.4c.49,2.12,1.2,5.2,2.1,9.12,1.79,7.9,4.34,19.18,7.42,32.79l0,.17-.15.07-14,7,.05-.39,6.55,5.87.18.15-.15.19-21.62,26.9c-3,3.73-5.94,7.39-8.74,10.87l-.17.22-.2-.19c-12.4-11.12-23.87-21.42-33.55-30.12l-.13-.11.09-.15c1.85-3.35,3.62-6.54,5.27-9.51l.12.28L327.71,227l-.12,0v-.12c0-7.52.06-13.5.07-17.62,0-2,0-3.62,0-4.71,0-.52,0-.92,0-1.21S327.75,202.85,327.75,202.85Z" style="fill:#263238"></path><path d="M454.49,295c-.05.09-1.12-.59-3-1.3a21.5,21.5,0,0,0-3.4-.94,22.4,22.4,0,0,0-4.29-.32,22.13,22.13,0,0,0-4.27.58,20.23,20.23,0,0,0-3.34,1.14c-1.84.82-2.86,1.56-2.92,1.48s.23-.23.69-.57a6.36,6.36,0,0,1,.86-.58,12.23,12.23,0,0,1,1.22-.66,17.68,17.68,0,0,1,3.37-1.27,20.79,20.79,0,0,1,4.37-.64,21.06,21.06,0,0,1,4.4.37,18,18,0,0,1,3.44,1.07,11.44,11.44,0,0,1,1.25.59,7.72,7.72,0,0,1,.91.52C454.26,294.79,454.51,295,454.49,295Z" style="fill:#263238"></path><path d="M431.4,242.49v-3H415.3v3a3.73,3.73,0,0,0-3.12,3.68v22.1a3.73,3.73,0,0,0,3.73,3.74h14.88a3.73,3.73,0,0,0,3.74-3.74v-22.1A3.74,3.74,0,0,0,431.4,242.49Z" style="fill:#FF725E"></path><path d="M431.4,242.6a124.75,124.75,0,0,1-16.1,0,124.75,124.75,0,0,1,16.1,0Z" style="fill:#263238"></path><path d="M431.4,241.74a124.75,124.75,0,0,1-16.1,0,124.75,124.75,0,0,1,16.1,0Z" style="fill:#263238"></path><path d="M431.4,240.87a124.75,124.75,0,0,1-16.1,0,124.75,124.75,0,0,1,16.1,0Z" style="fill:#263238"></path><rect x="412.18" y="234.6" width="21.98" height="5.25" rx="0.91" style="fill:#263238"></rect><path d="M413.32,239.58a11.72,11.72,0,0,1,0-4.91,11.72,11.72,0,0,1,0,4.91Z" style="fill:#455a64"></path><path d="M414.69,239.58a11.72,11.72,0,0,1,0-4.91,11.72,11.72,0,0,1,0,4.91Z" style="fill:#455a64"></path><path d="M416.06,239.58a11.72,11.72,0,0,1,0-4.91,11.72,11.72,0,0,1,0,4.91Z" style="fill:#455a64"></path><path d="M417.43,239.58a11.72,11.72,0,0,1,0-4.91,11.72,11.72,0,0,1,0,4.91Z" style="fill:#455a64"></path><path d="M418.81,239.58a11.72,11.72,0,0,1,0-4.91,11.72,11.72,0,0,1,0,4.91Z" style="fill:#455a64"></path><path d="M420.18,239.58a11.72,11.72,0,0,1,0-4.91,11.72,11.72,0,0,1,0,4.91Z" style="fill:#455a64"></path><path d="M421.55,239.58a11.72,11.72,0,0,1,0-4.91,11.72,11.72,0,0,1,0,4.91Z" style="fill:#455a64"></path><path d="M422.93,239.58a11.3,11.3,0,0,1,0-4.91,11.72,11.72,0,0,1,0,4.91Z" style="fill:#455a64"></path><path d="M424.3,239.58a11.72,11.72,0,0,1,0-4.91,11.72,11.72,0,0,1,0,4.91Z" style="fill:#455a64"></path><path d="M425.67,239.58a11.72,11.72,0,0,1,0-4.91,11.72,11.72,0,0,1,0,4.91Z" style="fill:#455a64"></path><path d="M427,239.58a11.72,11.72,0,0,1,0-4.91,11.72,11.72,0,0,1,0,4.91Z" style="fill:#455a64"></path><path d="M428.42,239.58a11.72,11.72,0,0,1,0-4.91,11.72,11.72,0,0,1,0,4.91Z" style="fill:#455a64"></path><path d="M429.79,239.58a11.72,11.72,0,0,1,0-4.91,11.72,11.72,0,0,1,0,4.91Z" style="fill:#455a64"></path><path d="M431.16,239.58a11.72,11.72,0,0,1,0-4.91,11.72,11.72,0,0,1,0,4.91Z" style="fill:#455a64"></path><path d="M432.53,239.58a11.72,11.72,0,0,1,0-4.91,11.72,11.72,0,0,1,0,4.91Z" style="fill:#455a64"></path><rect x="414.17" y="249.76" width="18.44" height="12.62" style="fill:#fafafa"></rect><path d="M433.5,238.34H447a0,0,0,0,1,0,0v42.72a4.44,4.44,0,0,1-4.44,4.44h-4.62a4.44,4.44,0,0,1-4.44-4.44V238.34A0,0,0,0,1,433.5,238.34Z" transform="translate(78.39 -100.69) rotate(14.31)" style="fill:#455a64"></path><rect x="433.04" y="249.75" width="8.02" height="27.3" transform="translate(78.66 -99.84) rotate(14.31)" style="fill:#fafafa"></rect><path d="M439.37,237.45h13a2.7,2.7,0,0,1,2.7,2.7v2.36a0,0,0,0,1,0,0H436.67a0,0,0,0,1,0,0v-2.36a2.7,2.7,0,0,1,2.7-2.7Z" transform="translate(73.14 -102.75) rotate(14.31)" style="fill:#263238"></path><path d="M397.72,285.21c.39-.77,13.94-24.09,13.94-24.09l1.15,4.22s31.07-13.23,33.37-12.85,4,2.3,2.11,4.41S427,269.37,427,269.37s19-6.9,20.9-5.66,1.65,2.59,1.21,4.7-18.85,11.12-18.85,11.12,15.15-6.14,16.3-5,1.34,1.73.58,4.22-1.73,7.1-4,9.21-5,4.09-5,4.09L404.9,315.12l-13.22-28.39Z" style="fill:#ffbe9d"></path><path d="M446.16,280.45a63.46,63.46,0,0,1-7.18,3.83,64.89,64.89,0,0,1-7.41,3.36,61.6,61.6,0,0,1,7.18-3.83A64.89,64.89,0,0,1,446.16,280.45Z" style="fill:#FF725E"></path><rect x="386.77" y="254.28" width="24.6" height="4.9" style="fill:#455a64"></rect><path d="M398.7,96.53c-.5-8.32-1.22-17.23-6.41-23.76-2.84-3.58-6.79-6.1-10.74-8.39-7.06-4.08-14.5-7.7-22.49-9.3s-16.63-1-23.78,2.87a28,28,0,0,0-13.42,17l60.8,52.79a20.71,20.71,0,0,0,13.94-11.29C399.45,110.33,399.1,103.27,398.7,96.53Z" style="fill:#263238"></path><path d="M325.24,70a38.38,38.38,0,0,0-3.38,47.78A323.48,323.48,0,0,1,339,64.27Z" style="fill:#263238"></path><path d="M318.15,94.81c.86-13.26,9.69-29.51,22.9-28.08l30.56,7.8C381.42,77,388,85.31,388.67,95.4c0,.51.08-.11.08.27l-2.21,80.07a23.91,23.91,0,0,1-24.42,23.2h0a23.92,23.92,0,0,1-23.39-23.87c0-6.45,0-14.06,0-14s-16.93-2.85-20.39-25C316.6,125.08,317.19,109.54,318.15,94.81Z" style="fill:#ffbe9d"></path><path d="M348.53,87.9a23.61,23.61,0,0,1-6.41,1.31,22.89,22.89,0,0,1-6.55,0c0-.16,2.92-.17,6.49-.54S348.49,87.74,348.53,87.9Z" style="fill:#eb996e"></path><path d="M343.59,87.11a15.89,15.89,0,0,1-8,.43,26.31,26.31,0,0,1,4-.24A25.36,25.36,0,0,1,343.59,87.11Z" style="fill:#eb996e"></path><path d="M352.79,130.87c-.15,0-.34-.89-1.23-1.45s-1.78-.44-1.82-.58.19-.22.6-.27a2.39,2.39,0,0,1,2.47,1.64C352.92,130.61,352.86,130.87,352.79,130.87Z" style="fill:#eb996e"></path><path d="M325.51,110.07a2.83,2.83,0,0,0,2.72,2.87,2.72,2.72,0,0,0,2.93-2.55,2.83,2.83,0,0,0-2.72-2.87A2.71,2.71,0,0,0,325.51,110.07Z" style="fill:#263238"></path><path d="M319.94,106.3c.35.36,2.48-1.26,5.53-1.29s5.31,1.46,5.63,1.08c.16-.17-.21-.83-1.19-1.52a7.77,7.77,0,0,0-4.51-1.33,7.5,7.5,0,0,0-4.4,1.49C320.07,105.46,319.76,106.13,319.94,106.3Z" style="fill:#263238"></path><path d="M356.15,110.07a2.84,2.84,0,0,0,2.73,2.87,2.72,2.72,0,0,0,2.93-2.55,2.85,2.85,0,0,0-2.73-2.87A2.71,2.71,0,0,0,356.15,110.07Z" style="fill:#263238"></path><path d="M353.21,106.66c.38.34,2.4-1.41,5.44-1.63s5.39,1.12,5.69.73c.15-.18-.26-.82-1.29-1.45a7.65,7.65,0,0,0-4.59-1,7.45,7.45,0,0,0-4.29,1.75C353.29,105.81,353,106.5,353.21,106.66Z" style="fill:#263238"></path><path d="M340.9,127.43c0-.18-1.88-.51-4.95-.91-.78-.08-1.52-.24-1.65-.77a4,4,0,0,1,.53-2.31c.73-1.88,1.51-3.85,2.31-5.92,3.22-8.44,5.55-15.38,5.21-15.51s-3.22,6.61-6.44,15q-1.17,3.12-2.22,6a4.48,4.48,0,0,0-.41,3.06,2,2,0,0,0,1.28,1.14,5.24,5.24,0,0,0,1.32.19C339,127.58,340.89,127.6,340.9,127.43Z" style="fill:#263238"></path><path d="M368,153.18s-7.19,15.18-29.31,13.06V161A55.68,55.68,0,0,0,368,153.18Z" style="fill:#eb996e"></path><path d="M342.17,134.78a5.5,5.5,0,0,1,4.94-2,5,5,0,0,1,3.46,1.87,3.18,3.18,0,0,1,.23,3.63,3.69,3.69,0,0,1-4,1,11.52,11.52,0,0,1-3.89-2.34,3.24,3.24,0,0,1-.87-.9,1,1,0,0,1,0-1.14" style="fill:#eb996e"></path><path d="M349.87,129.56c-.49,0-.51,3.28-3.35,5.62s-6.36,2-6.39,2.44c0,.2.79.64,2.28.68a8.22,8.22,0,0,0,5.33-1.84,7.22,7.22,0,0,0,2.6-4.72C350.47,130.36,350.1,129.54,349.87,129.56Z" style="fill:#263238"></path><path d="M351.29,95.9c.29.83,3.34.44,6.92.88s6.47,1.42,7,.68c.21-.36-.29-1.14-1.46-1.94a12.08,12.08,0,0,0-10.57-1.19C351.82,94.85,351.16,95.5,351.29,95.9Z" style="fill:#263238"></path><path d="M323.18,95.37c.53.69,2.64,0,5.16-.05s4.67.48,5.16-.25c.22-.35-.11-1-1.05-1.7a7.45,7.45,0,0,0-8.32.24C323.24,94.32,322.94,95,323.18,95.37Z" style="fill:#263238"></path><path d="M324.15,74.62c1.36-3.32,5-5.32,8.59-5.5s7.09,1.17,10.2,3c13.16,7.61,20.56,22.72,33.57,30.59,3.2,1.94,6.73,3.43,9.45,6s4.48,6.66,3,10.08a30.51,30.51,0,0,0,4.51-7.63,10.44,10.44,0,0,0-.36-8.62c-1.13-2-3.12-3.43-3.66-5.62-.48-1.92.28-3.93.19-5.91a12.89,12.89,0,0,0-2-5.64c-5.1-9-12.11-17.16-21.13-22.23a37.42,37.42,0,0,0-19.4-5,28.63,28.63,0,0,0-18.46,7.32c-2.91,2.71-6,5.52-4.46,9.2" style="fill:#263238"></path><path d="M396.29,123.7c-.52-.26-.26-1.72-.19-4.09a11.3,11.3,0,0,0-.47-3.88,5.23,5.23,0,0,0-.4-.9c-.07-.14-.18-.26-.26-.39l-.36-.51a16.66,16.66,0,0,0-1.83-2.12,5.56,5.56,0,0,0-1.9-1.34c-.24-.08-.3,0-.19,0l-.78.15-.83.19a15,15,0,0,0-3.14,1.19c-.52.27-1.05.57-1.58.91l-.4.25-.69.41a15.12,15.12,0,0,1-1.41.67,14.29,14.29,0,0,1-6.21,1,10.61,10.61,0,0,1-3.73-.94l-.48-.24-.38-.23c-.25-.16-.51-.3-.75-.47a14.65,14.65,0,0,1-1.37-1.1,18.28,18.28,0,0,1-3.79-5.17c-.89-1.75-1.56-3.46-2.2-5a58.48,58.48,0,0,0-9.5-15.59,62.44,62.44,0,0,0-11.08-10.27,35.64,35.64,0,0,0-8.71-5c-2.21-.83-3.64-1-3.73-1.63s1.31-1.43,4.2-1.51,7,1,11.23,3.2A51.7,51.7,0,0,1,359,81.5,55.33,55.33,0,0,1,370.49,99c.68,1.67,1.27,3.18,1.91,4.47a11,11,0,0,0,2,3,5.62,5.62,0,0,0,.53.46,1.65,1.65,0,0,0,.27.19l.14.1.06,0a2.28,2.28,0,0,0,.9.27,7.06,7.06,0,0,0,2.91-.31c.23-.08.45-.16.65-.25l.29-.14.56-.3a24.18,24.18,0,0,1,2.31-1.07,20.35,20.35,0,0,1,4.81-1.29l1.14-.13.56,0,.62,0a6.44,6.44,0,0,1,3.5.84,10.92,10.92,0,0,1,3.54,3.27,19.53,19.53,0,0,1,1.91,3.24c.12.28.23.49.36.83a9.18,9.18,0,0,1,.34,1,9.6,9.6,0,0,1,.33,1.82,11.69,11.69,0,0,1-.94,5.39C398,123,396.76,124,396.29,123.7Z" style="fill:#263238"></path><path d="M385.71,112.15c.24-.64,11.69-5.53,11.85,6.73.14,11.9-11.87,9.56-11.89,9.22S385.71,112.15,385.71,112.15Z" style="fill:#ffbe9d"></path><path d="M389.3,123.55c.05,0,.21.15.56.3a2,2,0,0,0,1.55,0c1.25-.47,2.29-2.48,2.33-4.63a6.87,6.87,0,0,0-.61-3,2.4,2.4,0,0,0-1.57-1.58,1.06,1.06,0,0,0-1.22.58c-.16.34-.08.57-.14.59s-.26-.19-.17-.69a1.37,1.37,0,0,1,.46-.75,1.62,1.62,0,0,1,1.15-.31,2.93,2.93,0,0,1,2.18,1.83,7.05,7.05,0,0,1,.75,3.31c-.05,2.4-1.26,4.65-3,5.17a2.24,2.24,0,0,1-1.9-.3C389.32,123.84,389.26,123.57,389.3,123.55Z" style="fill:#eb996e"></path><path d="M395.12,127.54a3.6,3.6,0,0,0-4-2.57l-.83.27a3.47,3.47,0,1,0,4.83,2.3Z" style="fill:#FF725E"></path><path d="M397.88,103.93a16.17,16.17,0,0,0,.19-3.81,16.41,16.41,0,0,0-1-4.34,21.65,21.65,0,0,0-2.9-5.14,32.4,32.4,0,0,0-5-5.17c-2-1.69-4.19-3.34-6.5-5.15a66.2,66.2,0,0,1-6.87-6.11c-2.26-2.25-4.51-4.65-7.05-6.84a30.87,30.87,0,0,0-8.21-5.24,30.38,30.38,0,0,0-8.77-2.27,29.17,29.17,0,0,0-15,2.46,30.42,30.42,0,0,0-8.58,5.82c-.89.86-1.53,1.57-2,2.06l-.49.56-.18.18a1.22,1.22,0,0,1,.14-.22l.45-.59A23.7,23.7,0,0,1,328,68a29.56,29.56,0,0,1,23.81-8.61,30,30,0,0,1,8.93,2.27A31.37,31.37,0,0,1,369.09,67c2.57,2.22,4.83,4.63,7.07,6.88A69.1,69.1,0,0,0,383,80c2.29,1.81,4.52,3.48,6.48,5.2a32.61,32.61,0,0,1,5,5.27,21.37,21.37,0,0,1,2.87,5.26,15.52,15.52,0,0,1,.95,4.43,12.58,12.58,0,0,1-.15,2.85c-.07.29-.13.53-.17.73A1,1,0,0,1,397.88,103.93Z" style="fill:#455a64"></path><path d="M398.17,110.33s0-.31-.1-.89-.12-1.45-.31-2.54a10.19,10.19,0,0,0-1.32-3.76,8.13,8.13,0,0,0-4.07-3.2c-3.65-1.47-8.64-1.28-13.52-3.54-4.89-2.1-9.6-5.67-14.09-9.77S356.18,78.41,352,75.27a42.23,42.23,0,0,0-6.27-4,31.63,31.63,0,0,0-6-2.3,22.58,22.58,0,0,0-9.29-.61,13.4,13.4,0,0,0-1.45.28,10.11,10.11,0,0,0-1,.27,5.06,5.06,0,0,1-.87.23,14,14,0,0,1,3.32-1,22.32,22.32,0,0,1,9.42.45,31.6,31.6,0,0,1,6.14,2.28,41.59,41.59,0,0,1,6.37,4c4.26,3.16,8.37,7.28,12.85,11.36S374.23,93.87,379,96c4.77,2.25,9.7,2.08,13.47,3.64a8.38,8.38,0,0,1,4.18,3.39,10.24,10.24,0,0,1,1.27,3.88,25.52,25.52,0,0,1,.22,2.56v.67A.6.6,0,0,1,398.17,110.33Z" style="fill:#455a64"></path><path d="M368.61,112.5a46.56,46.56,0,0,1-4.11,5.56A45.26,45.26,0,0,1,360,123.3a46.56,46.56,0,0,1,4.11-5.56A46.33,46.33,0,0,1,368.61,112.5Z" style="fill:#fff"></path><path d="M337.38,113.27a23.1,23.1,0,0,0-.54-3.46,14.12,14.12,0,0,0-18.52-9.73,13.48,13.48,0,0,0-3.55,1.92,13.29,13.29,0,0,0-3,3,14,14,0,0,0,0,16.58,14,14,0,0,0,6.51,4.89,14.09,14.09,0,0,0,7.38.63,13.93,13.93,0,0,0,5.93-2.61,14.24,14.24,0,0,0,5.21-7.74,25.14,25.14,0,0,0,.54-3.46.6.6,0,0,1,0,.23v.68a6,6,0,0,1-.09,1.11,9.76,9.76,0,0,1-.26,1.49,13.63,13.63,0,0,1-1.55,3.85,14.06,14.06,0,0,1-3.63,4.13,14.29,14.29,0,0,1-6.08,2.75,14.55,14.55,0,0,1-7.62-.6,14.56,14.56,0,0,1-6.76-5,14.41,14.41,0,0,1,0-17.18,14.56,14.56,0,0,1,6.76-5.05,14.55,14.55,0,0,1,7.62-.6,14.38,14.38,0,0,1,9.71,6.87,13.68,13.68,0,0,1,1.55,3.86,9.56,9.56,0,0,1,.26,1.49,5.84,5.84,0,0,1,.09,1.1V113A.6.6,0,0,1,337.38,113.27Z" style="fill:#455a64"></path><path d="M372.89,113.27a26.23,26.23,0,0,0-.55-3.46,14.12,14.12,0,0,0-18.52-9.73,13.48,13.48,0,0,0-3.55,1.92,13.29,13.29,0,0,0-3,3,14,14,0,0,0,0,16.58,13.5,13.5,0,0,0,3,3,13.16,13.16,0,0,0,3.55,1.91,14.09,14.09,0,0,0,7.38.63,13.93,13.93,0,0,0,5.93-2.61,14.24,14.24,0,0,0,5.21-7.74,26.51,26.51,0,0,0,.55-3.46,2.07,2.07,0,0,1,0,.23v.68a6,6,0,0,1-.09,1.11,9.76,9.76,0,0,1-.26,1.49,13.63,13.63,0,0,1-1.55,3.85,14.06,14.06,0,0,1-3.63,4.13,14.29,14.29,0,0,1-6.08,2.75,14.55,14.55,0,0,1-7.62-.6,14.56,14.56,0,0,1-6.76-5,14.45,14.45,0,0,1,0-17.18,14.56,14.56,0,0,1,6.76-5.05,14.55,14.55,0,0,1,7.62-.6A14.38,14.38,0,0,1,371,105.9a13.68,13.68,0,0,1,1.55,3.86,9.56,9.56,0,0,1,.26,1.49,5.84,5.84,0,0,1,.09,1.1V113A2.07,2.07,0,0,1,372.89,113.27Z" style="fill:#455a64"></path><path d="M345.57,107.94c-.07,0-.44-.44-1.21-1a6.72,6.72,0,0,0-3.4-1.29,6.82,6.82,0,0,0-3.56.76c-.84.45-1.29.87-1.35.81s.32-.57,1.17-1.12a6.07,6.07,0,0,1,7.37.56A2.89,2.89,0,0,1,345.57,107.94Z" style="fill:#455a64"></path><path d="M367.63,109.3a23.36,23.36,0,0,1-2.9,4,23.47,23.47,0,0,1-3.3,3.67,23.58,23.58,0,0,1,2.9-4A23.48,23.48,0,0,1,367.63,109.3Z" style="fill:#fff"></path><path d="M329.24,116a19.09,19.09,0,0,1-2.86,3.44,19.09,19.09,0,0,1-3.24,3.09A19.09,19.09,0,0,1,326,119,19.52,19.52,0,0,1,329.24,116Z" style="fill:#fff"></path><path d="M325,117c.11.09-.35.79-1,1.56s-1.31,1.31-1.42,1.21.35-.79,1-1.56S324.89,116.93,325,117Z" style="fill:#fff"></path></g><g id="freepik--Counter--inject-23"><rect x="74.62" y="362.24" width="600.76" height="115.67" style="fill:#ebebeb"></rect><rect x="363.53" y="392.56" width="12.46" height="55.85" style="fill:#455a64"></rect><rect x="363.53" y="392.56" width="12.46" height="55.85" transform="translate(-50.73 790.25) rotate(-90)" style="fill:#455a64"></rect><path d="M416.15,420.62a3.63,3.63,0,0,1-.09-.75c0-.55-.09-1.28-.16-2.21,0-.49-.07-1-.1-1.62s-.2-1.24-.31-2a34.61,34.61,0,0,0-1-4.79A44.37,44.37,0,0,0,409.33,397a46.15,46.15,0,0,0-55.44-19.67,42.68,42.68,0,0,0-11.66,6.28A53.39,53.39,0,0,0,337,388a51.63,51.63,0,0,0-4.51,5.35,44.77,44.77,0,0,0-6.59,12.69,45.76,45.76,0,0,0,0,29.07,44.67,44.67,0,0,0,6.58,12.7A53,53,0,0,0,337,453.2a49.73,49.73,0,0,0,5.23,4.44,42,42,0,0,0,11.66,6.28,46.26,46.26,0,0,0,55.44-19.67,44.25,44.25,0,0,0,5.18-12.31,34.61,34.61,0,0,0,1-4.79c.11-.7.24-1.35.31-1.94s.07-1.14.1-1.63c.07-.93.12-1.66.16-2.2a3.83,3.83,0,0,1,.09-.76,4,4,0,0,1,0,.76q0,.81-.06,2.22c0,.49,0,1-.06,1.63s-.17,1.25-.26,2a32.62,32.62,0,0,1-.9,4.84,44.12,44.12,0,0,1-5.07,12.51,46.75,46.75,0,0,1-56.23,20.23,48,48,0,0,1-6.14-2.68,49.8,49.8,0,0,1-5.77-3.69,51.81,51.81,0,0,1-5.34-4.53,52.74,52.74,0,0,1-4.62-5.45,45.39,45.39,0,0,1-6.74-13,46.47,46.47,0,0,1,0-29.69,45.44,45.44,0,0,1,6.73-12.95,42.85,42.85,0,0,1,10-10,48.59,48.59,0,0,1,5.77-3.7,49.44,49.44,0,0,1,6.14-2.68,47,47,0,0,1,24.68-2,46.85,46.85,0,0,1,31.54,22.22,44,44,0,0,1,5.08,12.5,32.86,32.86,0,0,1,.9,4.84c.09.71.21,1.36.26,2s0,1.15.06,1.64c0,.94,0,1.67.06,2.22A3.85,3.85,0,0,1,416.15,420.62Z" style="fill:#455a64"></path><rect x="32.92" y="348.19" width="677.06" height="14.05" style="fill:#455a64"></rect></g><g id="freepik--Device--inject-23"><rect x="461.41" y="199.02" width="175.44" height="120.84" style="fill:#263238"></rect><path d="M517.67,247.93a33,33,0,0,1,0-8.27,33,33,0,0,1,0,8.27Z" style="fill:#455a64"></path><path d="M522.36,247.93a33,33,0,0,1,0-8.27,33,33,0,0,1,0,8.27Z" style="fill:#455a64"></path><path d="M527.05,247.93a33,33,0,0,1,0-8.27,33,33,0,0,1,0,8.27Z" style="fill:#455a64"></path><path d="M531.74,247.93a33,33,0,0,1,0-8.27,33,33,0,0,1,0,8.27Z" style="fill:#455a64"></path><path d="M536.43,247.93a33,33,0,0,1,0-8.27,33,33,0,0,1,0,8.27Z" style="fill:#455a64"></path><path d="M541.12,247.93a33,33,0,0,1,0-8.27,33,33,0,0,1,0,8.27Z" style="fill:#455a64"></path><path d="M545.82,247.93a31.8,31.8,0,0,1,0-8.27,33,33,0,0,1,0,8.27Z" style="fill:#455a64"></path><path d="M550.51,247.93a33,33,0,0,1,0-8.27,33,33,0,0,1,0,8.27Z" style="fill:#455a64"></path><path d="M555.2,247.93a33,33,0,0,1,0-8.27,33,33,0,0,1,0,8.27Z" style="fill:#455a64"></path><path d="M559.89,247.93a33,33,0,0,1,0-8.27,33,33,0,0,1,0,8.27Z" style="fill:#455a64"></path><path d="M564.58,247.93a33,33,0,0,1,0-8.27,33,33,0,0,1,0,8.27Z" style="fill:#455a64"></path><path d="M569.27,247.93a33,33,0,0,1,0-8.27,33,33,0,0,1,0,8.27Z" style="fill:#455a64"></path><path d="M574,247.93a33,33,0,0,1,0-8.27,33,33,0,0,1,0,8.27Z" style="fill:#455a64"></path><path d="M578.65,247.93a33,33,0,0,1,0-8.27,33,33,0,0,1,0,8.27Z" style="fill:#455a64"></path><path d="M583.35,247.93a33,33,0,0,1,0-8.27,33,33,0,0,1,0,8.27Z" style="fill:#455a64"></path><path d="M588,247.93a33,33,0,0,1,0-8.27,33,33,0,0,1,0,8.27Z" style="fill:#455a64"></path><path d="M610.48,305.52s0-.47,0-1.35,0-2.2,0-3.9c0-3.43,0-8.46,0-14.9,0-12.88-.06-31.42-.11-54.11l.21.2-119.58.06h0l.26-.26c0,26.32,0,51.42,0,74.26l-.24-.24,86.05.12,24.68.06,6.57,0h1.7l.59,0h-.56l-1.67,0-6.53,0-24.62.06-86.21.12h-.24v-.24c0-22.84,0-47.94,0-74.26V231h.27l119.58.05h.2v.21c0,22.74-.08,41.32-.11,54.23,0,6.43,0,11.44-.05,14.86,0,1.69,0,3,0,3.86S610.48,305.52,610.48,305.52Z" style="fill:#455a64"></path><rect x="524.2" y="295.16" width="53.72" height="53.72" style="fill:#263238"></rect><path d="M524.62,284.07c.15,0,.26,14,.26,31.23s-.11,31.23-.26,31.23-.26-14-.26-31.23S524.48,284.07,524.62,284.07Z" style="fill:#455a64"></path><path d="M578.29,284.07c.15,0,.26,14,.26,31.23s-.11,31.23-.26,31.23-.26-14-.26-31.23S578.15,284.07,578.29,284.07Z" style="fill:#455a64"></path></g><g id="freepik--Medicines--inject-23"><rect x="87.87" y="322.17" width="48.31" height="25.68" style="fill:#e0e0e0"></rect><rect x="87.87" y="322.17" width="21.27" height="25.68" style="fill:#FF725E"></rect><path d="M132.82,334.11a100.35,100.35,0,0,1-10.14.26,100.64,100.64,0,0,1-10.15-.26,97.21,97.21,0,0,1,10.15-.26A96.94,96.94,0,0,1,132.82,334.11Z" style="fill:#263238"></path><path d="M123.05,337.15a26.29,26.29,0,0,1-5.26.26,26.29,26.29,0,0,1-5.26-.26,27.21,27.21,0,0,1,5.26-.26A27.21,27.21,0,0,1,123.05,337.15Z" style="fill:#263238"></path><path d="M106.52,345.25a2.25,2.25,0,0,1,0-.4q0-.44,0-1.11c0-1,0-2.4-.06-4.14,0-3.57-.07-8.56-.12-14.49l.24.23-16.64,0,.26-.26h0v5.46c0,1.78,0,3.53,0,5.22,0,3.38,0,6.55,0,9.44l-.22-.22,12,.12,3.39.05.91,0,.33,0a1,1,0,0,1-.28,0l-.87,0-3.34.06-12.15.11h-.22v-.22c0-2.89,0-6.06,0-9.44,0-1.69,0-3.44,0-5.22v-5.46h0l.26-.26,16.64,0h.23v.23c0,6-.09,11-.12,14.64,0,1.72,0,3.09-.06,4.09,0,.43,0,.78,0,1.06S106.52,345.26,106.52,345.25Z" style="fill:#263238"></path><rect x="136.95" y="281.48" width="31.26" height="66.34" style="fill:#FF725E"></rect><g style="opacity:0.30000000000000004"><rect x="136.95" y="281.48" width="31.26" height="66.34"></rect></g><rect x="126.03" y="281.48" width="26.55" height="66.34" style="fill:#FF725E"></rect><polygon points="138.09 281.48 126.03 293.51 126.03 301.82 147.03 281.48 138.09 281.48" style="fill:#fff"></polygon><path d="M126,301.88V293.5h0l12.06-12.05h9l0,.05Zm0-8.35v8.23L147,281.5H138.1Z" style="fill:#263238"></path><rect x="130.22" y="320.34" width="3.59" height="24.41" style="fill:#fff"></rect><path d="M133.84,344.78H130.2V320.32h3.64Zm-3.59,0h3.54V320.37h-3.54Z" style="fill:#263238"></path><path d="M147.78,335.73c-.14,0-.26-9.59-.26-21.41s.12-21.41.26-21.41.26,9.58.26,21.41S147.93,335.73,147.78,335.73Z" style="fill:#263238"></path><path d="M166.34,292.4a27.21,27.21,0,0,1-5.26.26,27.28,27.28,0,0,1-5.27-.26,26.35,26.35,0,0,1,5.27-.26A26.29,26.29,0,0,1,166.34,292.4Z" style="fill:#263238"></path><path d="M166.34,294.36a27.21,27.21,0,0,1-5.26.26,27.28,27.28,0,0,1-5.27-.26,25.88,25.88,0,0,1,5.27-.27A25.82,25.82,0,0,1,166.34,294.36Z" style="fill:#263238"></path><path d="M166.34,296.32a27.21,27.21,0,0,1-5.26.26,27.28,27.28,0,0,1-5.27-.26,25.88,25.88,0,0,1,5.27-.27A25.82,25.82,0,0,1,166.34,296.32Z" style="fill:#263238"></path><path d="M166.34,298.28a27.21,27.21,0,0,1-5.26.26,27.28,27.28,0,0,1-5.27-.26,25.88,25.88,0,0,1,5.27-.27A25.82,25.82,0,0,1,166.34,298.28Z" style="fill:#263238"></path><path d="M166.34,300.24a27.21,27.21,0,0,1-5.26.26,27.28,27.28,0,0,1-5.27-.26,25.88,25.88,0,0,1,5.27-.27A25.82,25.82,0,0,1,166.34,300.24Z" style="fill:#263238"></path><path d="M166.34,302.19a25.82,25.82,0,0,1-5.26.27,25.88,25.88,0,0,1-5.27-.27,27.28,27.28,0,0,1,5.27-.26A27.21,27.21,0,0,1,166.34,302.19Z" style="fill:#263238"></path><path d="M166.34,304.15a25.82,25.82,0,0,1-5.26.27,25.88,25.88,0,0,1-5.27-.27,27.28,27.28,0,0,1,5.27-.26A27.21,27.21,0,0,1,166.34,304.15Z" style="fill:#263238"></path><path d="M166.34,306.11a25.82,25.82,0,0,1-5.26.27,25.88,25.88,0,0,1-5.27-.27,27.28,27.28,0,0,1,5.27-.26A27.21,27.21,0,0,1,166.34,306.11Z" style="fill:#263238"></path><path d="M166.34,308.07a25.82,25.82,0,0,1-5.26.27,25.88,25.88,0,0,1-5.27-.27,27.28,27.28,0,0,1,5.27-.26A27.21,27.21,0,0,1,166.34,308.07Z" style="fill:#263238"></path><path d="M166.34,310a26.29,26.29,0,0,1-5.26.26,26.35,26.35,0,0,1-5.27-.26,27.28,27.28,0,0,1,5.27-.26A27.21,27.21,0,0,1,166.34,310Z" style="fill:#263238"></path><path d="M166.34,312a26.29,26.29,0,0,1-5.26.26,26.35,26.35,0,0,1-5.27-.26,27.28,27.28,0,0,1,5.27-.26A27.21,27.21,0,0,1,166.34,312Z" style="fill:#263238"></path><polygon points="244.91 334.78 262.98 347.82 228.78 347.82 244.91 334.78" style="fill:#e0e0e0"></polygon><polygon points="211.82 331.79 228.78 347.82 201.91 347.82 211.82 331.79" style="fill:#e0e0e0"></polygon><polygon points="201.91 347.82 211.82 331.79 158.78 331.92 145.96 347.82 201.91 347.82" style="fill:#fff"></polygon><path d="M201.91,347.82a1.1,1.1,0,0,1-.26,0l-.8,0-3.11,0-11.67.07-40.11.1h-.53l.33-.41,11.41-14.15,1.41-1.75.08-.1h.12l53,0h.31l-.16.27-7.37,11.76-2,3.12c-.21.33-.38.6-.51.79s-.18.27-.19.26a2.45,2.45,0,0,1,.16-.3c.13-.21.29-.48.49-.83.46-.75,1.1-1.82,1.92-3.19l7.2-11.8.14.27-53,.21.21-.1-1.42,1.76L146.16,348l-.2-.41,40,.1,11.71.07,3.15,0,.82,0Z" style="fill:#263238"></path><polygon points="244.91 334.78 228.78 347.82 214.84 334.74 244.91 334.78" style="fill:#fff"></polygon><path d="M211.82,331.79a2.32,2.32,0,0,1,.36.28l1,.86,3.58,3.27L229,347.64h-.32l7.64-6.2,8.48-6.84.15-.12.15.11L258,344l3.7,2.76,1,.75a1.48,1.48,0,0,1,.32.28,1.54,1.54,0,0,1-.37-.21l-1-.69-3.78-2.64L244.76,335h.3l-8.46,6.86L228.94,348l-.17.14-.16-.15L216.5,336.43,213,333.05l-.91-.92A1.61,1.61,0,0,1,211.82,331.79Z" style="fill:#263238"></path><path d="M203,337.43c0,.14-9.89.33-22.1.41s-22.1,0-22.1-.11,9.89-.33,22.1-.41S203,337.29,203,337.43Z" style="fill:#263238"></path><path d="M206,334.71c0,.15-9.9.33-22.1.41s-22.11,0-22.11-.1,9.9-.33,22.1-.42S206,334.57,206,334.71Z" style="fill:#263238"></path><path d="M238.63,337.21c0,.14-4.62.26-10.31.26a102.18,102.18,0,0,1-10.31-.25c0-.14,4.62-.26,10.31-.27A100.27,100.27,0,0,1,238.63,337.21Z" style="fill:#263238"></path><path d="M235.9,340.16a56.65,56.65,0,0,1-7.61.26,57.76,57.76,0,0,1-7.61-.25,53.73,53.73,0,0,1,7.61-.27A54.73,54.73,0,0,1,235.9,340.16Z" style="fill:#263238"></path><rect x="195.63" y="340.78" width="0.89" height="3.98" style="fill:#FF725E"></rect><rect x="195.63" y="340.78" width="0.89" height="3.98" transform="translate(-146.69 538.84) rotate(-90)" style="fill:#FF725E"></rect><path d="M199.38,342.78s0,0,0-.06v-.27a.78.78,0,0,0,0-.14,3,3,0,0,0-.07-.34,3.31,3.31,0,0,0-2.59-2.42,3.34,3.34,0,0,0-1.73.14,3.89,3.89,0,0,0-.42.19,3.54,3.54,0,0,0-.41.26,3.68,3.68,0,0,0-.37.32,4,4,0,0,0-.32.38,3.5,3.5,0,0,0-.47.9,3.24,3.24,0,0,0,0,2.07,3.5,3.5,0,0,0,.47.9c.1.14.21.26.32.39a3.57,3.57,0,0,0,.37.31,3.54,3.54,0,0,0,.41.26,3.89,3.89,0,0,0,.42.19,3.24,3.24,0,0,0,1.73.14,3.3,3.3,0,0,0,2.59-2.42,2.58,2.58,0,0,0,.07-.34.68.68,0,0,0,0-.14v-.27s0-.05,0-.05v.32s0,.09,0,.14a2.86,2.86,0,0,1-.06.35,3.4,3.4,0,0,1-1.21,1.84,3.22,3.22,0,0,1-1.4.63,3.35,3.35,0,0,1-1.76-.14,3.3,3.3,0,0,1-.43-.19,3.66,3.66,0,0,1-.42-.26c-.13-.1-.25-.21-.38-.33a2.92,2.92,0,0,1-.32-.38,3.16,3.16,0,0,1-.48-.93,3.67,3.67,0,0,1-.18-1.05,3.74,3.74,0,0,1,.18-1.06,3,3,0,0,1,.48-.92,3,3,0,0,1,.32-.39c.13-.11.25-.23.38-.32a3.74,3.74,0,0,1,.42-.27c.14-.06.28-.14.43-.19a3.45,3.45,0,0,1,1.76-.14,3.33,3.33,0,0,1,2.24,1.58,3.45,3.45,0,0,1,.37.89,2.86,2.86,0,0,1,.06.35c0,.05,0,.1,0,.14v.33Z" style="fill:#FF725E"></path></g></svg>